<svg xmlns="http://www.w3.org/2000/svg" width="1621.089" height="591.176"><defs><clipPath id="a"><path d="M917.245 298.519H2523.69v333.609H917.245V298.519z" transform="translate(-917.245 -298.519)" fill="none" clip-rule="evenodd"/></clipPath></defs><g fill="#fff"><path d="M103.618 472.573H81.982l-8.6-22.895H34.04l-8.115 22.895H4.836l38.34-100.735h21.016l39.426 100.734zm-36.6-39.854l-13.566-37.381-13.291 37.381zM179.815 371.838h36.326c8.178 0 14.406.629 18.718 1.924a32.41 32.41 0 0 1 14.826 9.281 44.209 44.209 0 0 1 9.429 16.3c2.124 6.446 3.208 14.37 3.208 23.825a67.617 67.617 0 0 1-3.027 21.436 44.258 44.258 0 0 1-10.54 17.78 34.6 34.6 0 0 1-13.959 8.042q-6.564 2.147-17.606 2.143h-37.375V371.838zm19.868 17.05v66.7h14.825c5.553 0 9.556-.311 12.036-.967a18.157 18.157 0 0 0 8.023-4.167c2.134-1.97 3.847-5.234 5.2-9.738 1.331-4.5 2.015-10.668 2.015-18.454s-.684-13.75-2.015-17.917a23.151 23.151 0 0 0-5.636-9.756 18.675 18.675 0 0 0-9.218-4.741c-2.771-.656-8.205-.958-16.312-.958zM381.558 472.57L346.38 371.835h21.566l24.895 74.557 24.105-74.557h21.084l-35.249 100.734zM516.817 472.57V371.835h72.973v17.051h-53.1v22.328h49.409v16.958H536.69v27.417h54.979v16.981zM669.813 472.573V371.838h41.842q15.782 0 22.922 2.717a22.8 22.8 0 0 1 11.46 9.638 29.577 29.577 0 0 1 4.286 15.875c0 7.558-2.179 13.823-6.51 18.746-4.331 4.9-10.842 8.024-19.485 9.282a46.449 46.449 0 0 1 10.658 8.47q4.2 4.609 11.3 16.348l12.036 19.658h-23.771l-14.37-21.938q-7.658-11.748-10.468-14.8a15.4 15.4 0 0 0-5.98-4.194c-2.106-.757-5.435-1.13-10.02-1.13h-4v42.061zm19.893-58.145h14.689q14.291 0 17.871-1.222a10.819 10.819 0 0 0 5.569-4.267 13.412 13.412 0 0 0 2.016-7.549 12.26 12.26 0 0 0-2.662-8.215 12.11 12.11 0 0 0-7.5-3.957c-1.6-.21-6.437-.328-14.5-.328h-15.483v25.538zM858.289 472.57v-83.683h-29.2v-17.052h78.216v17.051h-29.127v83.683zM981.147 472.57V371.835h19.865V472.57zM1066.688 439.805l19.339-1.942q1.721 9.984 7.084 14.652c3.556 3.1 8.344 4.669 14.4 4.669 6.391 0 11.224-1.386 14.451-4.176 3.254-2.772 4.887-6 4.887-9.711a9.208 9.208 0 0 0-2.061-6.072c-1.358-1.687-3.737-3.146-7.157-4.358-2.307-.848-7.632-2.3-15.9-4.413q-15.974-4.049-22.412-9.966a26.9 26.9 0 0 1-4.814-34.666 27 27 0 0 1 12.282-10.2q8.042-3.487 19.375-3.492 18.546 0 27.9 8.3c6.237 5.562 9.519 12.947 9.838 22.211l-19.868.894c-.846-5.179-2.688-8.908-5.478-11.16-2.8-2.28-6.994-3.4-12.584-3.4-5.771 0-10.312 1.195-13.566 3.629a7.368 7.368 0 0 0-3.165 6.237 7.774 7.774 0 0 0 2.964 6.127q3.732 3.228 18.264 6.729 14.508 3.529 21.444 7.249a28.158 28.158 0 0 1 10.9 10.249q3.913 6.51 3.911 16.038a30.054 30.054 0 0 1-4.7 16.212 28.242 28.242 0 0 1-13.292 11.233c-5.727 2.462-12.885 3.684-21.428 3.684q-18.668 0-28.668-8.817-10.008-8.835-11.942-25.73zM1235.883 472.57V371.835h19.87V472.57zM1326.65 472.57V371.835h19.34l40.29 67.264v-67.264h18.473V472.57h-19.963l-39.668-65.694v65.694zM1541.111 435.537v-16.986h42.835v40.136q-6.261 6.182-18.107 10.905a64.9 64.9 0 0 1-24 4.687q-15.429 0-26.926-6.61a41.876 41.876 0 0 1-17.252-18.974 62.434 62.434 0 0 1-5.778-26.834q0-15.714 6.436-27.973a43.905 43.905 0 0 1 18.883-18.746c6.3-3.355 14.171-5.015 23.559-5.015q18.328 0 28.632 7.851 10.311 7.891 13.266 21.773l-19.729 3.774a21.435 21.435 0 0 0-7.841-11.725q-5.732-4.295-14.327-4.294-13.018 0-20.713 8.443-7.7 8.48-7.677 25.092 0 17.917 7.794 26.9 7.768 8.972 20.39 8.963a33.645 33.645 0 0 0 12.536-2.507 43.408 43.408 0 0 0 10.777-6.073v-12.787z"/></g><path d="M0 0h1606.445v333.609H0V0z" fill="#c02f1d" fill-rule="evenodd"/><g clip-path="url(#a)" transform="translate(.002 .002)"><path d="M-205.852 44.838H-24.18Q-10.12.607 3.949-43.662q14.06-44.217 28.174-88.579 13.992 44.354 28.038 88.579 13.991 44.23 28.128 88.5h181.809q-36.831 27.394-73.535 54.789-36.681 27.326-73.389 54.752 13.991 44.286 28.037 88.534 13.991 44.23 28.129 88.4-36.847-27.243-73.637-54.643-36.762-27.34-73.58-54.8c-24.555 18.263-49.117 36.617-73.672 54.8q-36.913 27.312-73.728 54.643 13.994-44.148 28.085-88.4 13.975-44.2 28.128-88.534-36.776-27.326-73.444-54.752-36.694-27.312-73.344-54.789z" fill="#fff" fill-rule="evenodd"/></g><path d="M283.406.005h1337.682v333.6H283.406V.005z" fill="#1a1818" fill-rule="evenodd"/><path d="M330.872 213.248l76.854-4.923c1.643 12.765 5.053 22.475 10.158 29.2 8.279 10.832 20.2 16.194 35.66 16.194q17.246 0 26.643-8.288 9.313-8.315 9.309-19.238c0-6.912-2.918-13.139-8.881-18.619s-19.713-10.65-41.376-15.5q-53.121-12.241-75.751-32.441-22.813-20.283-22.813-51.625a71.3 71.3 0 0 1 11.681-38.979q11.679-18.3 35.112-28.83 23.455-10.463 64.244-10.458 50.111 0 76.426 19.057 26.285 19.052 31.274 60.642l-76.116 4.55q-3.023-18.026-12.783-26.277c-6.446-5.416-15.392-8.161-26.771-8.161-9.427 0-16.484 2-21.234 6.1a18.9 18.9 0 0 0-7.121 14.89c0 4.23 1.951 8.033 5.845 11.452 3.839 3.556 12.838 6.793 27.135 9.838q52.941 11.68 75.813 23.661c15.273 7.978 26.406 17.807 33.344 29.642a76.552 76.552 0 0 1 10.468 39.6 86.243 86.243 0 0 1-13.933 47.385q-13.881 21.773-38.887 32.943-24.907 11.215-62.9 11.206-66.633 0-92.308-26.269-25.74-26.245-29.087-66.751zM650.908 34.284h245.45v66.067H813.97v201.376h-80.738V100.351h-82.324V34.284zm478.655 223.295h-92l-12.656 44.148H942.4l98.208-267.443h88.041l98.263 267.443h-84.513l-12.84-44.148zm-16.912-57.844l-28.9-96.147-28.721 96.147zm201.814 101.992V34.284h134.587q37.421 0 57.2 6.6a60.8 60.8 0 0 1 31.94 24.354q12.144 17.739 12.109 43.273c0 14.88-3.1 27.645-9.247 38.413a74.335 74.335 0 0 1-25.493 26.223c-6.937 4.23-16.365 7.777-28.356 10.522q14.416 4.95 21.053 9.9c2.918 2.179 7.24 6.847 12.9 14.005 5.653 7.221 9.429 12.7 11.315 16.622l39.061 77.529h-91.26l-43.145-81.759c-5.473-10.522-10.349-17.434-14.662-20.607a33.375 33.375 0 0 0-19.778-6.172h-7.12v108.54zm81.1-159.1h34.075c3.653 0 10.767-1.176 21.362-3.611a21.611 21.611 0 0 0 13.137-8.406 25.237 25.237 0 0 0 5.053-15.5c0-8.662-2.682-15.254-8.033-19.868q-8.026-7-30.116-6.975h-35.478v54.36z" fill="#fff"/><text transform="translate(151.002 578.176)" fill="#fff" font-size="63" font-family="MSReferenceSansSerif, MS Reference Sans Serif" letter-spacing=".09em"><tspan x="0" y="0">LEAFLET ADVERTISING AGENCY</tspan></text></svg>